PathFileType	4	(X/Y/Z)	D:\telocate\uwb03-Unnamed.trc
DataRate	CameraRate	NumFrames	NumMarkers	Units	OrigDataRate	OrigDataStartFrame	OrigNumFrames
100.00	100.00	      234	0	mm	100.00	8723	      9968
Frame#	Time	
		

8723	87.220	2949.20850	-2994.45117	1204.67102	
8724	87.230	2949.46362	-2994.81885	1204.43604	
8725	87.240	2949.30786	-2995.37207	1205.13416	
8726	87.250	2950.32471	-2995.78271	1204.00000	
8727	87.260	2950.75830	-2996.45386	1204.19971	
8728	87.270	2950.55347	-2997.22607	1203.10547	
8729	87.280	2950.35693	-2998.29297	1203.19751	
8730	87.290	2949.93481	-2999.08887	1203.46509	
8731	87.300	2950.21729	-2999.61768	1202.96484	
8732	87.310	2951.48853	-3000.26807	1202.04102	
8733	87.320	2951.70996	-3000.71045	1201.59155	
8734	87.330	2952.08081	-3001.15405	1201.25574	
8735	87.340	2952.31909	-3002.55127	1200.68762	
8736	87.350	2952.25513	-3003.32178	1200.17419	
8737	87.360	2952.08569	-3003.64966	1199.51514	
8738	87.370	2949.56079	-3004.48804	1198.47510	
8739	87.380	2949.32764	-3004.72119	1197.93591	
8740	87.390	2949.07568	-3005.01440	1197.04883	
8741	87.400	2948.56348	-3005.06812	1197.01636	
8742	87.410	2948.10620	-3005.74146	1196.90015	
8743	87.420	2947.84473	-3007.70557	1197.62878	
8744	87.430	2947.86353	-3008.03418	1197.68213	
8745	87.440	2947.56714	-3008.19873	1197.61377	
8746	87.450	2948.02515	-3008.24146	1197.64941	
8747	87.460	2948.57373	-3008.55029	1197.30908	
8748	87.470	2948.97461	-3009.00513	1197.29211	
8749	87.480	2949.76953	-3009.94409	1197.51575	
8750	87.490	2950.30957	-3010.61694	1197.33740	
8751	87.500	2950.65381	-3011.01465	1197.30908	
8752	87.510	2951.60840	-3011.99365	1197.17554	
8753	87.520	2952.22339	-3012.94922	1197.15405	
8754	87.530	2955.00806	-3013.13696	1197.53101	
8755	87.540	2953.24756	-3015.43213	1197.20984	
8756	87.550	2956.08691	-3015.72412	1198.07031	
8757	87.560	2956.95654	-3016.17261	1197.71851	
8758	87.570	2958.14990	-3017.12476	1197.68469	
8759	87.580	2957.09204	-3018.04004	1197.79932	
8760	87.590	2958.83960	-3018.43384	1197.51086	
8761	87.600	2959.58789	-3018.88354	1197.09192	
8762	87.610	2960.32568	-3019.64941	1197.81409	
8763	87.620	2960.98682	-3019.72949	1197.14478	
8764	87.630	2960.80347	-3020.13232	1198.04333	
8765	87.640	2962.59302	-3020.63452	1197.43469	
8766	87.650	2965.56592	-3020.00317	1197.45471	
8767	87.660	2966.77759	-3020.18164	1197.27319	
8768	87.670	2967.73120	-3019.95215	1197.25964	
8769	87.680	2969.01123	-3020.17969	1197.52405	
8770	87.690	2970.79468	-3020.27441	1197.93237	
8771	87.700	2971.45435	-3020.18872	1197.35254	
8772	87.710	2972.29150	-3020.30371	1197.79028	
8773	87.720	2973.20483	-3020.60693	1197.44690	
8774	87.730	2974.00317	-3020.97876	1197.22412	
8775	87.740	2974.52319	-3020.72559	1197.33984	
8776	87.750	2974.82788	-3021.10596	1196.88464	
8777	87.760	2975.14185	-3020.72705	1197.06812	
8778	87.770	2975.24683	-3020.71973	1197.08301	
8779	87.780	2975.67529	-3020.61719	1197.33813	
8780	87.790	2975.80273	-3020.01587	1197.28320	
8781	87.800	2976.04370	-3019.79614	1197.60046	
8782	87.810	2975.76416	-3019.03638	1196.71729	
8783	87.820	2975.70947	-3019.29834	1197.10962	
8784	87.830	2975.95630	-3018.78735	1197.06848	
8785	87.840	2975.74414	-3017.63623	1196.82214	
8786	87.850	2975.27759	-3017.29077	1196.17676	
8787	87.860	2975.82080	-3016.41187	1196.43542	
8788	87.870	2975.52441	-3016.02710	1196.57751	
8789	87.880	2974.85986	-3015.61523	1196.39709	
8790	87.890	2974.67749	-3015.23193	1196.48083	
8791	87.900	2974.11377	-3014.15967	1196.81531	
8792	87.910	2973.50830	-3012.68359	1197.34949	
8793	87.920	2972.95264	-3011.06250	1196.88245	
8794	87.930	2972.34619	-3010.95703	1196.81604	
8795	87.940	2971.63574	-3009.90747	1196.99768	
8796	87.950	2970.84497	-3009.00342	1196.62708	
8797	87.960	2970.46973	-3008.58496	1196.63843	
8798	87.970	2969.75708	-3007.86621	1196.83887	
8799	87.980	2969.40796	-3007.36768	1196.93188	
8800	87.990	2969.25610	-3006.48291	1196.87732	
8801	88.000	2969.63062	-3005.43677	1196.84705	
8802	88.010	2969.45923	-3005.04541	1196.85486	
8803	88.020	2969.28809	-3004.75244	1196.81909	
8804	88.030	2969.40430	-3003.59644	1196.88843	
8805	88.040	2969.13037	-3002.73047	1196.90930	
8806	88.050	2968.59985	-3001.93921	1197.10632	
8807	88.060	2968.15308	-3001.40381	1197.09753	
8808	88.070	2967.87378	-3000.13818	1196.52026	
8809	88.080	2967.75757	-2998.87158	1196.86682	
8810	88.090	2967.70288	-2997.42090	1197.17810	
8811	88.100	2967.60303	-2996.24170	1197.21191	
8812	88.110	2967.10522	-2994.29102	1196.42480	
8813	88.120	2967.66284	-2991.90747	1196.77429	
8814	88.130	2968.04736	-2990.14868	1196.95325	
8815	88.140	2967.33325	-2988.89038	1195.17859	
8816	88.150	2968.17871	-2986.53784	1196.52441	
8817	88.160	2967.83398	-2984.82349	1196.44287	
8818	88.170	2965.67920	-2983.61377	1196.16943	
8819	88.180	2968.51563	-2979.84790	1195.90112	
8820	88.190	2968.81958	-2978.27905	1195.93323	
8821	88.200	2969.25537	-2975.25171	1195.16736	
8822	88.210	2969.41943	-2972.80518	1195.08301	
8823	88.220	2968.28979	-2970.92773	1194.91052	
8824	88.230	2968.46167	-2968.66235	1194.67102	
8825	88.240	2969.80005	-2964.60840	1194.92432	
8826	88.250	2969.55737	-2962.10327	1194.76172	
8827	88.260	2969.60327	-2960.65234	1194.11316	
8828	88.270	2970.33911	-2956.93018	1193.94263	
8829	88.280	2970.85767	-2953.77563	1193.78101	
8830	88.290	2970.97827	-2950.93896	1192.97107	
8831	88.300	2971.04688	-2948.45483	1192.65186	
8832	88.310	2971.32300	-2944.84448	1192.83777	
8833	88.320	2971.57349	-2942.08643	1192.66333	
8834	88.330	2970.73730	-2938.54736	1192.87585	
8835	88.340	2971.08521	-2935.72949	1192.51453	
8836	88.350	2971.20605	-2933.19019	1191.83630	
8837	88.360	2971.32837	-2929.88623	1191.45642	
8838	88.370	2971.30737	-2927.18164	1191.21875	
8839	88.380	2971.42358	-2924.43628	1191.67859	
8840	88.390	2970.20728	-2922.36523	1189.73059	
8841	88.400	2970.56836	-2919.25488	1190.73792	
8842	88.410	2972.50000	-2916.28369	1189.94788	
8843	88.420	2972.58984	-2914.26685	1189.92310	
8844	88.430	2972.46484	-2911.89478	1189.76050	
8845	88.440	2972.57715	-2909.79980	1189.63574	
8846	88.450	2972.10498	-2907.54443	1189.88721	
8847	88.460	2971.55103	-2905.69507	1189.26648	
8848	88.470	2971.03906	-2903.97095	1188.81946	
8849	88.480	2970.37939	-2903.34180	1188.79651	
8850	88.490	2968.23242	-2900.91357	1189.02161	
8851	88.500	2968.76880	-2899.40356	1188.84363	
8852	88.510	2968.84155	-2897.33862	1188.83801	
8853	88.520	2968.04102	-2896.31616	1188.97083	
8854	88.530	2967.42969	-2895.28613	1188.85303	
8855	88.540	2967.71899	-2894.63867	1188.72473	
8856	88.550	2967.41992	-2893.88135	1188.70361	
8857	88.560	2967.00049	-2892.55273	1188.58801	
8858	88.570	2966.77075	-2891.46973	1188.51929	
8859	88.580	2966.96948	-2891.05713	1188.38818	
8860	88.590	2966.98584	-2889.97461	1188.67749	
8861	88.600	2966.93066	-2888.95532	1188.55090	
8862	88.610	2966.95850	-2888.56689	1188.60242	
8863	88.620	2966.55688	-2887.76636	1188.05200	
8864	88.630	2966.24927	-2887.35156	1188.25598	
8865	88.640	2965.90381	-2887.09766	1188.39954	
8866	88.650	2965.77051	-2886.87109	1188.27271	
8867	88.660	2965.41577	-2886.74438	1188.49158	
8868	88.670	2965.36304	-2886.50342	1188.52795	
8869	88.680	2965.28638	-2886.31714	1188.63696	
8870	88.690	2965.34058	-2886.25879	1188.88733	
8871	88.700	2965.29419	-2885.98755	1188.95422	
8872	88.710	2966.65063	-2887.74927	1187.77441	
8873	88.720	2966.60718	-2887.66479	1187.87488	
8874	88.730	2966.46582	-2887.55005	1187.81506	
8875	88.740	2965.99780	-2887.54907	1187.96057	
8876	88.750	2965.39624	-2887.61133	1187.69373	
8877	88.760	2961.03198	-2889.05688	1186.37085	
8878	88.770	2960.51782	-2888.62769	1186.25610	
8879	88.780	2958.16528	-2887.63892	1187.55310	
8880	88.790	2957.68481	-2887.26636	1187.57886	
8881	88.800	2957.03198	-2887.21265	1187.45630	
8882	88.810	2956.91504	-2887.19385	1187.50928	
8883	88.820	2958.51416	-2886.84961	1187.31335	
8884	88.830	2958.25757	-2887.06494	1187.80420	
8885	88.840	2958.58179	-2887.68530	1187.42444	
8886	88.850	2958.35059	-2888.43750	1187.18091	
8887	88.860	2958.49316	-2888.86328	1187.10291	
8888	88.870	2958.56250	-2889.86499	1187.06311	
8889	88.880	2957.27100	-2891.08154	1187.81067	
8890	88.890	2957.12573	-2892.03955	1187.89587	
8891	88.900	2957.05029	-2892.58276	1188.29858	
8892	88.910	2957.24512	-2893.38135	1188.65759	
8893	88.920	2957.46167	-2893.79956	1188.28809	
8894	88.930	2957.24854	-2895.07349	1188.00891	
8895	88.940	2956.27808	-2897.14844	1187.50720	
8896	88.950	2956.71240	-2897.48291	1188.31042	
8897	88.960	2955.99194	-2899.57446	1188.90112	
8898	88.970	2955.68604	-2900.79810	1189.28210	
8899	88.980	2954.79980	-2902.35645	1189.41931	
8900	88.990	2954.52710	-2903.00928	1189.26746	
8901	89.000	2953.33984	-2903.85083	1189.42383	
8902	89.010	2952.57983	-2904.50928	1189.40405	
8903	89.020	2951.12549	-2905.84570	1189.49182	
8904	89.030	2950.14771	-2907.30054	1190.01477	
8905	89.040	2949.65381	-2908.57178	1189.72266	
8906	89.050	2948.22339	-2910.40063	1189.94299	
8907	89.060	2946.91382	-2911.38257	1190.15759	
8908	89.070	2949.21582	-2912.04175	1189.99475	
8909	89.080	2948.73877	-2912.97119	1190.35962	
8910	89.090	2948.28149	-2913.48608	1190.43884	
8911	89.100	2947.92554	-2913.64282	1190.60754	
8912	89.110	2946.60986	-2914.74902	1190.54163	
8913	89.120	2946.33838	-2915.36377	1190.92236	
8914	89.130	2945.79346	-2916.00000	1190.46179	
8915	89.140	2944.92651	-2916.16626	1190.23853	
8916	89.150	2944.74365	-2916.11572	1190.23413	
8917	89.160	2944.74121	-2916.10815	1190.38696	
8918	89.170	2944.77344	-2916.86084	1190.70837	
8919	89.180	2944.26855	-2917.55737	1190.75598	
8920	89.190	2943.90259	-2917.50684	1190.64465	
8921	89.200	2943.60181	-2917.41016	1190.37415	
8922	89.210	2943.59424	-2917.32471	1190.34802	
8923	89.220	2943.75195	-2917.40210	1190.34155	
8924	89.230	2943.78955	-2917.46680	1190.30493	
8925	89.240	2944.36572	-2917.65552	1190.62402	
8926	89.250	2945.21899	-2917.45703	1190.76416	
8927	89.260	2942.94263	-2917.83179	1191.43115	
8928	89.270	2943.49316	-2916.55176	1191.76672	
8929	89.280	2944.13013	-2916.21558	1191.70959	
8930	89.290	2944.62329	-2917.01123	1190.90662	
8931	89.300	2945.38623	-2916.31348	1191.07190	
8932	89.310	2945.90381	-2916.45752	1190.86011	
8933	89.320	2946.11475	-2916.46875	1190.79785	
8934	89.330	2946.46484	-2916.33643	1190.91919	
8935	89.340	2946.16870	-2916.37695	1191.45874	
8936	89.350	2946.73511	-2917.46191	1192.05640	
8937	89.360	2947.45483	-2918.11475	1191.89185	
8938	89.370	2948.05322	-2918.77319	1191.81030	
8939	89.380	2950.47632	-2919.75854	1191.73206	
8940	89.390	2950.85083	-2920.69995	1191.87524	
8941	89.400	2950.81445	-2921.28271	1192.54529	
8942	89.410	2951.18115	-2921.86816	1192.56262	
8943	89.420	2951.15308	-2923.12402	1192.53613	
8944	89.430	2951.94043	-2923.85986	1192.01123	
8945	89.440	2953.26367	-2924.90601	1192.23169	
8946	89.450	2952.68115	-2926.33228	1192.23840	
8947	89.460	2952.77075	-2927.46558	1192.63110	
8948	89.470	2952.41943	-2929.37256	1192.59070	
8949	89.480	2949.54102	-2932.54712	1192.28638	
8950	89.490	2949.79297	-2933.33496	1192.25415	
8951	89.500	2948.26147	-2934.09839	1193.24817	
8952	89.510	2949.23706	-2936.75024	1192.62036	
8953	89.520	2952.08862	-2937.07715	1193.46704	
8954	89.530	2951.67700	-2938.17798	1193.02344	
8955	89.540	2951.33960	-2939.20020	1193.53027	
8956	89.550	2948.94824	-2941.10840	1193.58789	
